<mxfile host="app.diagrams.net" modified="2022-07-16T07:39:01.188Z" agent="5.0 (Windows NT 10.0; WOW64) AppleWebKit/537.36 (KHTML, like Gecko) Chrome/103.0.5060.114 Safari/537.36 NetHelper70" etag="p_z82kVHk3IQ2W7C_9-2" version="19.0.3" type="github">
  <diagram id="i8zhlsrR-wtEDuSeV49l" name="Page-1">
    <mxGraphModel dx="865" dy="456" grid="0" gridSize="10" guides="1" tooltips="1" connect="1" arrows="1" fold="1" page="1" pageScale="1" pageWidth="2339" pageHeight="3300" math="0" shadow="0">
      <root>
        <mxCell id="0" />
        <mxCell id="1" parent="0" />
        <mxCell id="fw4QjgiYjNa6LBBgIXgP-1" value="" style="rounded=1;whiteSpace=wrap;html=1;strokeColor=none;fillColor=#f9f7ed;" vertex="1" parent="1">
          <mxGeometry x="203" y="176" width="268" height="189" as="geometry" />
        </mxCell>
        <mxCell id="fw4QjgiYjNa6LBBgIXgP-2" value="" style="rounded=1;whiteSpace=wrap;html=1;fillColor=#f9f7ed;strokeColor=none;" vertex="1" parent="1">
          <mxGeometry x="595" y="176" width="268" height="189" as="geometry" />
        </mxCell>
        <mxCell id="fw4QjgiYjNa6LBBgIXgP-3" value="" style="ellipse;whiteSpace=wrap;html=1;aspect=fixed;" vertex="1" parent="1">
          <mxGeometry x="238" y="230.5" width="80" height="80" as="geometry" />
        </mxCell>
        <mxCell id="fw4QjgiYjNa6LBBgIXgP-4" value="" style="ellipse;whiteSpace=wrap;html=1;aspect=fixed;fillColor=#ffcccc;strokeColor=#36393d;" vertex="1" parent="1">
          <mxGeometry x="370" y="241" width="69" height="69" as="geometry" />
        </mxCell>
        <mxCell id="fw4QjgiYjNa6LBBgIXgP-5" value="" style="ellipse;whiteSpace=wrap;html=1;aspect=fixed;" vertex="1" parent="1">
          <mxGeometry x="755" y="232" width="80" height="80" as="geometry" />
        </mxCell>
        <mxCell id="fw4QjgiYjNa6LBBgIXgP-6" value="" style="curved=1;endArrow=classic;html=1;rounded=0;exitX=1;exitY=0;exitDx=0;exitDy=0;dashed=1;" edge="1" parent="1" source="fw4QjgiYjNa6LBBgIXgP-3" target="fw4QjgiYjNa6LBBgIXgP-4">
          <mxGeometry width="50" height="50" relative="1" as="geometry">
            <mxPoint x="503" y="307" as="sourcePoint" />
            <mxPoint x="553" y="257" as="targetPoint" />
            <Array as="points">
              <mxPoint x="326" y="207" />
              <mxPoint x="383" y="217" />
            </Array>
          </mxGeometry>
        </mxCell>
        <mxCell id="fw4QjgiYjNa6LBBgIXgP-7" value="" style="curved=1;endArrow=classic;html=1;rounded=0;exitX=0.78;exitY=0.034;exitDx=0;exitDy=0;dashed=1;entryX=0;entryY=0;entryDx=0;entryDy=0;exitPerimeter=0;" edge="1" parent="1" target="fw4QjgiYjNa6LBBgIXgP-13" source="fw4QjgiYjNa6LBBgIXgP-4">
          <mxGeometry width="50" height="50" relative="1" as="geometry">
            <mxPoint x="429.00427124746216" y="253.21572875253787" as="sourcePoint" />
            <mxPoint x="621.75" y="261.25" as="targetPoint" />
            <Array as="points">
              <mxPoint x="470" y="200" />
              <mxPoint x="600" y="200" />
            </Array>
          </mxGeometry>
        </mxCell>
        <mxCell id="fw4QjgiYjNa6LBBgIXgP-8" value="Client heap" style="text;html=1;strokeColor=none;fillColor=none;align=center;verticalAlign=middle;whiteSpace=wrap;rounded=0;fontSize=19;" vertex="1" parent="1">
          <mxGeometry x="222" y="137" width="230" height="30" as="geometry" />
        </mxCell>
        <mxCell id="fw4QjgiYjNa6LBBgIXgP-9" value="Server heap" style="text;html=1;strokeColor=none;fillColor=none;align=center;verticalAlign=middle;whiteSpace=wrap;rounded=0;fontSize=19;" vertex="1" parent="1">
          <mxGeometry x="634" y="137" width="190" height="30" as="geometry" />
        </mxCell>
        <mxCell id="fw4QjgiYjNa6LBBgIXgP-10" value="클라이언트 보조 객체" style="text;html=1;strokeColor=none;fillColor=none;align=center;verticalAlign=middle;whiteSpace=wrap;rounded=0;fontSize=12;" vertex="1" parent="1">
          <mxGeometry x="371.75" y="260.75" width="65.5" height="29.5" as="geometry" />
        </mxCell>
        <mxCell id="fw4QjgiYjNa6LBBgIXgP-11" value="클라이언트 객체" style="text;html=1;strokeColor=none;fillColor=none;align=center;verticalAlign=middle;whiteSpace=wrap;rounded=0;fontSize=14;" vertex="1" parent="1">
          <mxGeometry x="240.5" y="258" width="75" height="30" as="geometry" />
        </mxCell>
        <mxCell id="fw4QjgiYjNa6LBBgIXgP-12" value="서비스 객체" style="text;html=1;strokeColor=none;fillColor=none;align=center;verticalAlign=middle;whiteSpace=wrap;rounded=0;fontSize=14;" vertex="1" parent="1">
          <mxGeometry x="755" y="259" width="77.5" height="21" as="geometry" />
        </mxCell>
        <mxCell id="fw4QjgiYjNa6LBBgIXgP-13" value="" style="ellipse;whiteSpace=wrap;html=1;aspect=fixed;fillColor=#ffcccc;strokeColor=#36393d;" vertex="1" parent="1">
          <mxGeometry x="640" y="238.5" width="69" height="69" as="geometry" />
        </mxCell>
        <mxCell id="fw4QjgiYjNa6LBBgIXgP-15" value="서비스&lt;br&gt;보조 객체" style="text;html=1;strokeColor=none;fillColor=none;align=center;verticalAlign=middle;whiteSpace=wrap;rounded=0;fontSize=12;" vertex="1" parent="1">
          <mxGeometry x="641.75" y="258.25" width="65.5" height="29.5" as="geometry" />
        </mxCell>
        <mxCell id="fw4QjgiYjNa6LBBgIXgP-16" value="" style="curved=1;endArrow=classic;html=1;rounded=0;exitX=1;exitY=0;exitDx=0;exitDy=0;dashed=1;entryX=0;entryY=0;entryDx=0;entryDy=0;" edge="1" parent="1" source="fw4QjgiYjNa6LBBgIXgP-13" target="fw4QjgiYjNa6LBBgIXgP-5">
          <mxGeometry width="50" height="50" relative="1" as="geometry">
            <mxPoint x="685.7642712474621" y="252.21572875253787" as="sourcePoint" />
            <mxPoint x="772.2347826156267" y="253.06082817649303" as="targetPoint" />
            <Array as="points">
              <mxPoint x="705.48" y="217" />
              <mxPoint x="750" y="217" />
            </Array>
          </mxGeometry>
        </mxCell>
        <mxCell id="fw4QjgiYjNa6LBBgIXgP-18" value="= Proxy" style="text;html=1;strokeColor=none;fillColor=none;align=center;verticalAlign=middle;whiteSpace=wrap;rounded=0;fontSize=12;" vertex="1" parent="1">
          <mxGeometry x="370" y="312" width="60" height="30" as="geometry" />
        </mxCell>
        <mxCell id="fw4QjgiYjNa6LBBgIXgP-21" value="①&lt;span style=&quot;color: rgba(0, 0, 0, 0); font-family: monospace; font-size: 0px; text-align: start;&quot;&gt;%3CmxGraphModel%3E%3Croot%3E%3CmxCell%20id%3D%220%22%2F%3E%3CmxCell%20id%3D%221%22%20parent%3D%220%22%2F%3E%3CmxCell%20id%3D%222%22%20value%3D%22%22%20style%3D%22curved%3D1%3BendArrow%3Dclassic%3Bhtml%3D1%3Brounded%3D0%3BexitX%3D1%3BexitY%3D0%3BexitDx%3D0%3BexitDy%3D0%3Bdashed%3D1%3B%22%20edge%3D%221%22%20parent%3D%221%22%3E%3CmxGeometry%20width%3D%2250%22%20height%3D%2250%22%20relative%3D%221%22%20as%3D%22geometry%22%3E%3CmxPoint%20x%3D%22306.28427124746213%22%20y%3D%22242.21572875253787%22%20as%3D%22sourcePoint%22%2F%3E%3CmxPoint%20x%3D%22392.7547826156267%22%20y%3D%22243.06082817649303%22%20as%3D%22targetPoint%22%2F%3E%3CArray%20as%3D%22points%22%3E%3CmxPoint%20x%3D%22326%22%20y%3D%22207%22%2F%3E%3CmxPoint%20x%3D%22383%22%20y%3D%22217%22%2F%3E%3C%2FArray%3E%3C%2FmxGeometry%3E%3C%2FmxCell%3E%3C%2Froot%3E%3C%2FmxGraphModel%3E&lt;/span&gt;" style="text;html=1;strokeColor=none;fillColor=none;align=center;verticalAlign=middle;whiteSpace=wrap;rounded=0;fontSize=12;" vertex="1" parent="1">
          <mxGeometry x="318" y="180" width="60" height="30" as="geometry" />
        </mxCell>
        <mxCell id="fw4QjgiYjNa6LBBgIXgP-22" value="②&lt;span style=&quot;color: rgba(0, 0, 0, 0); font-family: monospace; font-size: 0px; text-align: start;&quot;&gt;%3CmxGraphModel%3E%3Croot%3E%3CmxCell%20id%3D%220%22%2F%3E%3CmxCell%20id%3D%221%22%20parent%3D%220%22%2F%3E%3CmxCell%20id%3D%222%22%20value%3D%22%22%20style%3D%22curved%3D1%3BendArrow%3Dclassic%3Bhtml%3D1%3Brounded%3D0%3BexitX%3D1%3BexitY%3D0%3BexitDx%3D0%3BexitDy%3D0%3Bdashed%3D1%3B%22%20edge%3D%221%22%20parent%3D%221%22%3E%3CmxGeometry%20width%3D%2250%22%20height%3D%2250%22%20relative%3D%221%22%20as%3D%22geometry%22%3E%3CmxPoint%20x%3D%22306.28427124746213%22%20y%3D%22242.21572875253787%22%20as%3D%22sourcePoint%22%2F%3E%3CmxPoint%20x%3D%22392.7547826156267%22%20y%3D%22243.06082817649303%22%20as%3D%22targetPoint%22%2F%3E%3CArray%20as%3D%22points%22%3E%3CmxPoint%20x%3D%22326%22%20y%3D%22207%22%2F%3E%3CmxPoint%20x%3D%22383%22%20y%3D%22217%22%2F%3E%3C%2FArray%3E%3C%2FmxGeometry%3E%3C%2FmxCell%3E%3C%2Froot%3E%3C%2FmxGraphModel%&lt;/span&gt;" style="text;html=1;strokeColor=none;fillColor=none;align=center;verticalAlign=middle;whiteSpace=wrap;rounded=0;fontSize=12;" vertex="1" parent="1">
          <mxGeometry x="500" y="167" width="60" height="30" as="geometry" />
        </mxCell>
        <mxCell id="fw4QjgiYjNa6LBBgIXgP-23" value="③&lt;span style=&quot;color: rgba(0, 0, 0, 0); font-family: monospace; font-size: 0px; text-align: start;&quot;&gt;%3CmxGraphModel%3E%3Croot%3E%3CmxCell%20id%3D%220%22%2F%3E%3CmxCell%20id%3D%221%22%20parent%3D%220%22%2F%3E%3CmxCell%20id%3D%222%22%20value%3D%22%22%20style%3D%22curved%3D1%3BendArrow%3Dclassic%3Bhtml%3D1%3Brounded%3D0%3BexitX%3D1%3BexitY%3D0%3BexitDx%3D0%3BexitDy%3D0%3Bdashed%3D1%3B%22%20edge%3D%221%22%20parent%3D%221%22%3E%3CmxGeometry%20width%3D%2250%22%20height%3D%2250%22%20relative%3D%221%22%20as%3D%22geometry%22%3E%3CmxPoint%20x%3D%22306.28427124746213%22%20y%3D%22242.21572875253787%22%20as%3D%22sourcePoint%22%2F%3E%3CmxPoint%20x%3D%22392.7547826156267%22%20y%3D%22243.06082817649303%22%20as%3D%22targetPoint%22%2F%3E%3CArray%20as%3D%22points%22%3E%3CmxPoint%20x%3D%22326%22%20y%3D%22207%22%2F%3E%3CmxPoint%20x%3D%22383%22%20y%3D%22217%22%2F%3E%3C%2FArray%3E%3C%2FmxGeometry%3E%3C%2FmxCell%3E%3C%2Froot%3E%3C%2FmxGraphModel%3E&lt;/span&gt;" style="text;html=1;strokeColor=none;fillColor=none;align=center;verticalAlign=middle;whiteSpace=wrap;rounded=0;fontSize=12;" vertex="1" parent="1">
          <mxGeometry x="695" y="180" width="60" height="30" as="geometry" />
        </mxCell>
      </root>
    </mxGraphModel>
  </diagram>
</mxfile>
